<mxfile host="app.diagrams.net" modified="2020-10-25T07:45:03.930Z" agent="5.0 (Macintosh; Intel Mac OS X 10_14_6) AppleWebKit/537.36 (KHTML, like Gecko) Chrome/86.0.4240.80 Safari/537.36" etag="g6TuXY5w_N9C-tfxa8rJ" version="13.8.2" type="github">
  <diagram id="prtHgNgQTEPvFCAcTncT" name="Page-1">
    <mxGraphModel dx="1426" dy="794" grid="1" gridSize="10" guides="1" tooltips="1" connect="1" arrows="1" fold="1" page="1" pageScale="1" pageWidth="827" pageHeight="1169" math="0" shadow="0">
      <root>
        <mxCell id="0" />
        <mxCell id="1" parent="0" />
        <mxCell id="99Zj5jqmKJXmmGkbeezX-13" value="" style="rounded=1;whiteSpace=wrap;html=1;labelBorderColor=none;dashed=1;" vertex="1" parent="1">
          <mxGeometry x="69" y="188.5" width="690" height="295" as="geometry" />
        </mxCell>
        <mxCell id="99Zj5jqmKJXmmGkbeezX-1" value="Target Server Cluster" style="shape=mxgraph.cisco.storage.web_cluster;html=1;pointerEvents=1;dashed=0;fillColor=#036897;strokeColor=#ffffff;strokeWidth=2;verticalLabelPosition=bottom;verticalAlign=top;align=center;outlineConnect=0;" vertex="1" parent="1">
          <mxGeometry x="95" y="283" width="186" height="106" as="geometry" />
        </mxCell>
        <mxCell id="99Zj5jqmKJXmmGkbeezX-2" value="Load Machine 1" style="shape=mxgraph.cisco.controllers_and_modules.3174_(desktop)_cluster_controller;html=1;pointerEvents=1;dashed=0;fillColor=#036897;strokeColor=#ffffff;strokeWidth=2;verticalLabelPosition=bottom;verticalAlign=top;align=center;outlineConnect=0;" vertex="1" parent="1">
          <mxGeometry x="395" y="235" width="77" height="32" as="geometry" />
        </mxCell>
        <mxCell id="99Zj5jqmKJXmmGkbeezX-3" value="Load Machine 2&lt;br&gt;" style="shape=mxgraph.cisco.controllers_and_modules.3174_(desktop)_cluster_controller;html=1;pointerEvents=1;dashed=0;fillColor=#036897;strokeColor=#ffffff;strokeWidth=2;verticalLabelPosition=bottom;verticalAlign=top;align=center;outlineConnect=0;" vertex="1" parent="1">
          <mxGeometry x="395" y="320" width="77" height="32" as="geometry" />
        </mxCell>
        <mxCell id="99Zj5jqmKJXmmGkbeezX-4" value="Load Machine 3" style="shape=mxgraph.cisco.controllers_and_modules.3174_(desktop)_cluster_controller;html=1;pointerEvents=1;dashed=0;fillColor=#036897;strokeColor=#ffffff;strokeWidth=2;verticalLabelPosition=bottom;verticalAlign=top;align=center;outlineConnect=0;" vertex="1" parent="1">
          <mxGeometry x="395" y="405" width="77" height="32" as="geometry" />
        </mxCell>
        <mxCell id="99Zj5jqmKJXmmGkbeezX-6" value="Control Machine" style="shape=mxgraph.cisco.controllers_and_modules.3x74_(floor)_cluster_controller;html=1;pointerEvents=1;dashed=0;fillColor=#036897;strokeColor=#ffffff;strokeWidth=2;verticalLabelPosition=bottom;verticalAlign=top;align=center;outlineConnect=0;" vertex="1" parent="1">
          <mxGeometry x="655" y="303" width="77" height="66" as="geometry" />
        </mxCell>
        <mxCell id="99Zj5jqmKJXmmGkbeezX-7" value="" style="endArrow=classic;html=1;entryX=1;entryY=0.5;entryDx=0;entryDy=0;entryPerimeter=0;exitX=0.01;exitY=0.5;exitDx=0;exitDy=0;exitPerimeter=0;" edge="1" parent="1" source="99Zj5jqmKJXmmGkbeezX-6" target="99Zj5jqmKJXmmGkbeezX-2">
          <mxGeometry width="50" height="50" relative="1" as="geometry">
            <mxPoint x="575" y="320" as="sourcePoint" />
            <mxPoint x="625" y="270" as="targetPoint" />
          </mxGeometry>
        </mxCell>
        <mxCell id="99Zj5jqmKJXmmGkbeezX-8" value="" style="endArrow=classic;html=1;exitX=0.01;exitY=0.5;exitDx=0;exitDy=0;exitPerimeter=0;entryX=1;entryY=0.5;entryDx=0;entryDy=0;entryPerimeter=0;" edge="1" parent="1" source="99Zj5jqmKJXmmGkbeezX-6" target="99Zj5jqmKJXmmGkbeezX-3">
          <mxGeometry width="50" height="50" relative="1" as="geometry">
            <mxPoint x="535" y="580" as="sourcePoint" />
            <mxPoint x="585" y="530" as="targetPoint" />
          </mxGeometry>
        </mxCell>
        <mxCell id="99Zj5jqmKJXmmGkbeezX-9" value="" style="endArrow=classic;html=1;exitX=0.01;exitY=0.5;exitDx=0;exitDy=0;exitPerimeter=0;entryX=1;entryY=0.5;entryDx=0;entryDy=0;entryPerimeter=0;" edge="1" parent="1" source="99Zj5jqmKJXmmGkbeezX-6" target="99Zj5jqmKJXmmGkbeezX-4">
          <mxGeometry width="50" height="50" relative="1" as="geometry">
            <mxPoint x="515" y="490" as="sourcePoint" />
            <mxPoint x="565" y="440" as="targetPoint" />
          </mxGeometry>
        </mxCell>
        <mxCell id="99Zj5jqmKJXmmGkbeezX-10" value="" style="endArrow=classic;html=1;exitX=0;exitY=0.5;exitDx=0;exitDy=0;exitPerimeter=0;entryX=0.82;entryY=0.15;entryDx=0;entryDy=0;entryPerimeter=0;" edge="1" parent="1" source="99Zj5jqmKJXmmGkbeezX-2" target="99Zj5jqmKJXmmGkbeezX-1">
          <mxGeometry width="50" height="50" relative="1" as="geometry">
            <mxPoint x="245" y="250" as="sourcePoint" />
            <mxPoint x="295" y="200" as="targetPoint" />
          </mxGeometry>
        </mxCell>
        <mxCell id="99Zj5jqmKJXmmGkbeezX-11" value="" style="endArrow=classic;html=1;exitX=0;exitY=0.5;exitDx=0;exitDy=0;exitPerimeter=0;" edge="1" parent="1" source="99Zj5jqmKJXmmGkbeezX-3" target="99Zj5jqmKJXmmGkbeezX-1">
          <mxGeometry width="50" height="50" relative="1" as="geometry">
            <mxPoint x="205" y="560" as="sourcePoint" />
            <mxPoint x="255" y="510" as="targetPoint" />
          </mxGeometry>
        </mxCell>
        <mxCell id="99Zj5jqmKJXmmGkbeezX-12" value="" style="endArrow=classic;html=1;entryX=0.82;entryY=0.92;entryDx=0;entryDy=0;entryPerimeter=0;exitX=0;exitY=0.5;exitDx=0;exitDy=0;exitPerimeter=0;" edge="1" parent="1" source="99Zj5jqmKJXmmGkbeezX-4" target="99Zj5jqmKJXmmGkbeezX-1">
          <mxGeometry width="50" height="50" relative="1" as="geometry">
            <mxPoint x="305" y="570" as="sourcePoint" />
            <mxPoint x="355" y="520" as="targetPoint" />
          </mxGeometry>
        </mxCell>
      </root>
    </mxGraphModel>
  </diagram>
</mxfile>
